# xmcd CD database file
#
# Track frame offsets:
#	150
#	21925
#	67160
#
# Disc length: 1184 seconds
#
# Revision: 0
# Processed by: cddbd v1.5.1PL0 Copyright (c) Steve Scherf et al.
# Submitted via: CDex 1.51
#
DISCID=25049e03
DTITLE=折笠愛 - blue seed
DYEAR=1995
DGENRE=Anime
TTITLE0=My sin
TTITLE1=妖精より愛をこめて
TTITLE2=My sin off vocal
EXTD=YEAR: 1995
EXTT0=
EXTT1=
EXTT2=
PLAYORDER=
